<?xml version="1.0" encoding="UTF-8" standalone="no"?>
<!-- Creator: CorelDRAW 2018 (64 Bit Versão de avaliação) -->

<svg
   xml:space="preserve"
   width="49.999996mm"
   height="49.999996mm"
   version="1.1"
   style="clip-rule:evenodd;fill-rule:evenodd;image-rendering:optimizeQuality;shape-rendering:geometricPrecision;text-rendering:geometricPrecision"
   viewBox="0 0 2081.8927 2081.9003"
   id="svg73"
   sodipodi:docname="favicon.svg"
   inkscape:version="1.1 (c68e22c387, 2021-05-23)"
   xmlns:inkscape="http://www.inkscape.org/namespaces/inkscape"
   xmlns:sodipodi="http://sodipodi.sourceforge.net/DTD/sodipodi-0.dtd"
   xmlns="http://www.w3.org/2000/svg"
   xmlns:svg="http://www.w3.org/2000/svg"><sodipodi:namedview
   id="namedview75"
   pagecolor="#ffffff"
   bordercolor="#666666"
   borderopacity="1.0"
   inkscape:pageshadow="2"
   inkscape:pageopacity="0.0"
   inkscape:pagecheckerboard="0"
   inkscape:document-units="mm"
   showgrid="false"
   inkscape:snap-grids="true"
   inkscape:zoom="2.9004391"
   inkscape:cx="61.370019"
   inkscape:cy="67.748364"
   inkscape:window-width="1495"
   inkscape:window-height="1082"
   inkscape:window-x="379"
   inkscape:window-y="125"
   inkscape:window-maximized="0"
   inkscape:current-layer="svg73" />
 <defs
   id="defs67">
  <style
   type="text/css"
   id="style65">
   <![CDATA[
    .fil0 {fill:#5252A4}
   ]]>
  </style>
 </defs>
 <circle
   style="fill:#181b23;fill-opacity:1;fill-rule:evenodd;stroke-width:13.7709"
   id="circle371"
   cx="1040.9468"
   cy="1040.9502"
   r="1040.9502" /><g
   id="Camada_x0020_1"
   inkscape:label="Camada 1"
   inkscape:groupmode="layer"
   transform="translate(352.59882,516.74149)">
  <metadata
   id="CorelCorpID_0Corel-Layer" />
  
 <path
   class="fil0"
   d="m 95.044445,525.32522 c -169.929997,164 -115.099997,441.35993 95.640005,529.11988 48.62,20.24 84.76,24.46 142.62,24.36 105.51,-0.18 227.6,5.78 330.97,-0.66 -33.38,-39.93 -57.92,-46.76 -97.36,-117.83995 -7.82,-14.1 -16.98,-36.54 -25.28,-48.6 -74.43,-7.04 -187.99,9.22 -255.08,-3.39 -151.71,-28.53 -168.54,-239.52993 -23.42,-292.03993 58.21,-21.06 183.65,2.37 249.69,-8.89 l 0.51,-167.37 c -149.1,-14.87 -281.75,41.77 -339.63,-94.55 -33.14,-78.05 8.75,-174.49001 97.03,-201.81001 30.63,-9.48 72.07,-6.54 106.23,-6.54 83.01,0 123.06,-7.41 176.98,39.71 47.25,41.30001 50.27,86.99001 50.27,167.02001 0,116.02 -4.54,330.25 0.43,433.51993 5.5,114.43 73.36,212.24 169.49,264.71995 56.94,31.08 104.79,36.53 177.44,36.52 69.73995,0 141.73995,5.64 203.97995,-13.24 207.46,-62.9299 304.93,-318.79991 151.58,-512.50988 -7.73,-9.76 -21.17,-19.34 -26.69,-31.75 98.17,-78.77 131.48,-247.74 69.98,-371.08001 -62.82,-126.000002 -166.47,-181.269995 -324.92,-181.269995 -111.03995,0 -227.85995,-3.51 -338.17995,0.27 1.05,1.48 48.47,42.719991 72.57,72.629993 17.43,21.63001 48.1,64.780012 56.12,95.110002 51.31,0.69 232.77995,-2.66 264.82995,1.32 67.79,8.4 123.63,63.4 131.87,132.47001 9.59,80.32 -43.92,141.59 -101.99,161.9 -48.77,17.05 -197.76995,2.03 -261.55995,7.52 l -1.78,168.17 c 70.63,2.94 144.95,0.27 215.10995,0.38 176,0.28 201.61,240.17993 50.46,293.35993 -32.19,11.33 -64.66,8.96 -100.89,8.96 -76.20995,0 -132.61995,8.66 -183.30995,-34.26 -49.56,-41.97 -56.21,-76.78 -56.21,-163.09993 0,-118.22 4.53,-330.82 -0.36,-436.9 -6.16,-133.42001 -83.14,-222.120012 -166.68,-268.7300142 -54.41,-30.3599908 -107.3,-39.1099908 -178.13,-39.0799908 -69.77,0.02 -140.07,-5.26 -203.84,13.13 C 2.644448,45.625208 -77.915552,318.80522 69.004445,493.87522 c 6.35,7.57 22.16,24.26 26.02,31.43 z"
   id="path70"
   style="clip-rule:evenodd;fill:#7f7fd2;fill-opacity:1;fill-rule:evenodd;image-rendering:optimizeQuality;shape-rendering:geometricPrecision;text-rendering:geometricPrecision" /></g>
</svg>
