<?xml version="1.0" encoding="UTF-8"?>
<!DOCTYPE svg PUBLIC "-//W3C//DTD SVG 1.1//EN" "http://www.w3.org/Graphics/SVG/1.1/DTD/svg11.dtd">
<!-- Creator: CorelDRAW 2018 (64 Bit Versão de avaliação) -->
<svg xmlns="http://www.w3.org/2000/svg" xml:space="preserve" width="33.324mm" height="26.7508mm" version="1.1" style="shape-rendering:geometricPrecision; text-rendering:geometricPrecision; image-rendering:optimizeQuality; fill-rule:evenodd; clip-rule:evenodd"
viewBox="0 0 8147.75 6540.59"
 xmlns:xlink="http://www.w3.org/1999/xlink">
 <defs>
  <style type="text/css">
   <![CDATA[
    .fil0 {fill:#7F7FD2}
   ]]>
  </style>
 </defs>
 <g id="Camada_x0020_1">
  <metadata id="CorelCorpID_0Corel-Layer"/>
  <path class="fil0" d="M589.83 3276.75c-997.86,963.04 -675.87,2591.68 561.62,3107.04 285.5,118.88 497.71,143.64 837.49,143.06 619.57,-1.05 1336.52,33.91 1943.51,-3.86 -195.99,-234.45 -340.13,-274.57 -571.69,-691.99 -45.92,-82.81 -99.73,-214.57 -148.44,-285.36 -437.05,-41.35 -1103.9,54.16 -1497.84,-19.9 -890.86,-167.51 -989.69,-1406.52 -137.51,-1714.86 341.84,-123.67 1078.42,13.91 1466.2,-52.18l3.01 -982.8c-875.51,-87.34 -1654.44,245.28 -1994.32,-555.21 -194.57,-458.32 51.39,-1024.63 569.76,-1185.05 179.85,-55.65 423.21,-38.39 623.82,-38.39 487.41,0 722.62,-43.52 1039.25,233.2 277.48,242.5 295.21,510.84 295.21,980.74 0,681.28 -26.65,1939.23 2.52,2545.69 32.3,671.94 430.76,1246.29 995.27,1554.46 334.33,182.5 615.31,214.53 1041.96,214.48 409.49,-0.02 832.31,33.13 1197.76,-77.75 1218.2,-369.54 1790.58,-1872 890.11,-3009.49 -45.4,-57.34 -124.3,-113.57 -156.73,-186.46 576.46,-462.57 772.06,-1454.76 410.93,-2179.04 -368.9,-739.88 -977.54,-1064.43 -1907.96,-1064.41 -652.06,0.02 -1338.01,-20.61 -1985.84,1.61 6.16,8.7 284.6,250.83 426.16,426.51 102.35,127.02 282.42,380.39 329.54,558.49 301.3,4.03 1366.93,-15.6 1555.1,7.73 398.07,49.34 725.97,372.3 774.36,777.88 56.28,471.64 -257.92,831.45 -598.9,950.69 -286.41,100.15 -1161.31,11.93 -1535.88,44.16l-10.46 987.49c414.72,17.26 851.13,1.56 1263.16,2.22 1033.51,1.66 1183.87,1410.35 296.29,1722.61 -189.05,66.5 -379.69,52.62 -592.45,52.62 -447.51,0 -778.76,50.88 -1076.44,-201.2 -291,-246.43 -330.05,-450.84 -330.05,-957.76 0.02,-694.19 26.6,-1942.58 -2.13,-2565.52 -36.16,-783.48 -488.22,-1304.31 -978.79,-1578.03 -319.51,-178.27 -630.1,-229.64 -1046,-229.49 -409.69,0.15 -822.5,-30.9 -1196.98,77.12 -1297.08,374.18 -1770.11,1978.33 -907.39,3006.36 37.29,44.43 130.12,142.47 152.76,184.57z"/>
 </g>
</svg>
