<?xml version="1.0" encoding="UTF-8"?>
<!DOCTYPE svg PUBLIC "-//W3C//DTD SVG 1.1//EN" "http://www.w3.org/Graphics/SVG/1.1/DTD/svg11.dtd">
<!-- Creator: CorelDRAW 2018 (64 Bit Versão de avaliação) -->
<svg xmlns="http://www.w3.org/2000/svg" xml:space="preserve" width="33.324mm" height="26.7508mm" version="1.1" style="shape-rendering:geometricPrecision; text-rendering:geometricPrecision; image-rendering:optimizeQuality; fill-rule:evenodd; clip-rule:evenodd"
viewBox="0 0 1387.54 1113.85"
 xmlns:xlink="http://www.w3.org/1999/xlink">
 <defs>
  <style type="text/css">
   <![CDATA[
    .fil0 {fill:#5252A4}
   ]]>
  </style>
 </defs>
 <g id="Camada_x0020_1">
  <metadata id="CorelCorpID_0Corel-Layer"/>
  <path class="fil0" d="M100.45 558.02c-169.93,164 -115.1,441.36 95.64,529.12 48.62,20.24 84.76,24.46 142.62,24.36 105.51,-0.18 227.6,5.78 330.97,-0.66 -33.38,-39.93 -57.92,-46.76 -97.36,-117.84 -7.82,-14.1 -16.98,-36.54 -25.28,-48.6 -74.43,-7.04 -187.99,9.22 -255.08,-3.39 -151.71,-28.53 -168.54,-239.53 -23.42,-292.04 58.21,-21.06 183.65,2.37 249.69,-8.89l0.51 -167.37c-149.1,-14.87 -281.75,41.77 -339.63,-94.55 -33.14,-78.05 8.75,-174.49 97.03,-201.81 30.63,-9.48 72.07,-6.54 106.23,-6.54 83.01,0 123.06,-7.41 176.98,39.71 47.25,41.3 50.27,86.99 50.27,167.02 0,116.02 -4.54,330.25 0.43,433.52 5.5,114.43 73.36,212.24 169.49,264.72 56.94,31.08 104.79,36.53 177.44,36.52 69.74,-0 141.74,5.64 203.98,-13.24 207.46,-62.93 304.93,-318.8 151.58,-512.51 -7.73,-9.76 -21.17,-19.34 -26.69,-31.75 98.17,-78.77 131.48,-247.74 69.98,-371.08 -62.82,-126 -166.47,-181.27 -324.92,-181.27 -111.04,0 -227.86,-3.51 -338.18,0.27 1.05,1.48 48.47,42.72 72.57,72.63 17.43,21.63 48.1,64.78 56.12,95.11 51.31,0.69 232.78,-2.66 264.83,1.32 67.79,8.4 123.63,63.4 131.87,132.47 9.59,80.32 -43.92,141.59 -101.99,161.9 -48.77,17.05 -197.77,2.03 -261.56,7.52l-1.78 168.17c70.63,2.94 144.95,0.27 215.11,0.38 176,0.28 201.61,240.18 50.46,293.36 -32.19,11.33 -64.66,8.96 -100.89,8.96 -76.21,0 -132.62,8.66 -183.31,-34.26 -49.56,-41.97 -56.21,-76.78 -56.21,-163.1 0,-118.22 4.53,-330.82 -0.36,-436.9 -6.16,-133.42 -83.14,-222.12 -166.68,-268.73 -54.41,-30.36 -107.3,-39.11 -178.13,-39.08 -69.77,0.02 -140.07,-5.26 -203.84,13.13 -220.89,63.72 -301.45,336.9 -154.53,511.97 6.35,7.57 22.16,24.26 26.02,31.43z"/>
 </g>
</svg>
