<?xml version="1.0" encoding="UTF-8"?>
<!DOCTYPE svg PUBLIC "-//W3C//DTD SVG 1.1//EN" "http://www.w3.org/Graphics/SVG/1.1/DTD/svg11.dtd">
<!-- Creator: CorelDRAW 2018 (64 Bit Versão de avaliação) -->
<svg xmlns="http://www.w3.org/2000/svg" xml:space="preserve" width="152.911mm" height="26.7508mm" version="1.1" style="shape-rendering:geometricPrecision; text-rendering:geometricPrecision; image-rendering:optimizeQuality; fill-rule:evenodd; clip-rule:evenodd"
viewBox="0 0 15250.73 2668.02"
 xmlns:xlink="http://www.w3.org/1999/xlink">
 <defs>
  <style type="text/css">
   <![CDATA[
    .fil1 {fill:#444444}
    .fil0 {fill:#5252A4}
   ]]>
  </style>
 </defs>
 <g id="Layer_x0020_1">
  <metadata id="CorelCorpID_0Corel-Layer"/>
  <g id="_1412813703264">
   <g>
    <path class="fil0" d="M10670.72 2178.83c-77.55,77.55 -170.95,116.34 -280.12,116.34 -109.19,0 -202.57,-38.79 -280.13,-116.34 -77.55,-77.55 -116.34,-170.94 -116.34,-280.13 0,-54.18 9.78,-104.81 29.33,-151.87 19.53,-47.03 48.55,-89.79 87.01,-128.25 38.46,-38.46 81.23,-67.48 128.25,-87.01 47.07,-19.56 97.7,-29.34 151.88,-29.34 54.15,0 104.8,9.78 151.87,29.33 47.04,19.55 89.8,48.57 128.25,87.02 38.45,38.45 67.47,81.23 87.02,128.25 19.55,47.06 29.33,97.7 29.33,151.87 0,54.18 -9.78,104.81 -29.33,151.88 -19.55,47.04 -48.57,89.8 -87.02,128.25zm-451.04 -1021.28c-53.83,11.72 -105.22,29.32 -154.26,52.73l-71.29 34.03 0 -154.34c0,-25.63 -4.32,-48.91 -12.96,-69.83 -8.68,-21 -21.91,-40.41 -39.68,-58.17 -17.97,-17.82 -37.6,-31.21 -58.88,-40.05 -21.01,-8.74 -44.24,-13.16 -69.69,-13.16 -25.44,0 -48.67,4.42 -69.69,13.16 -21.24,8.83 -40.85,22.19 -58.78,39.96l0.09 0.09c-17.98,17.98 -31.28,37.38 -39.86,58.17 -8.63,20.9 -12.96,44.19 -12.96,69.83l0 1386.4c0,25.64 4.33,48.93 12.96,69.88 8.69,21.07 21.96,40.61 39.77,58.6 17.97,17.8 37.53,31.08 58.59,39.76 20.94,8.64 44.24,12.96 69.88,12.96 25.43,0 48.73,-4.41 69.82,-13.18 21.13,-8.79 40.83,-22.3 58.96,-40.43 4.05,-4.05 7.38,-7.64 10.01,-10.73 3.78,-4.45 6.92,-8.42 9.37,-11.82l25.87 -35.95 38.61 21.54c108.22,60.37 230.29,90.57 365.03,90.57 105.21,0 202.43,-18.45 291.52,-55.37 89.22,-36.98 170.94,-92.59 244.97,-166.81l0 -0.19c74.3,-74.29 130,-155.97 166.93,-245.01 36.93,-89 55.44,-186.16 55.44,-291.49 0,-105.08 -18.5,-202.2 -55.39,-291.22 -36.95,-89.14 -92.65,-170.96 -166.98,-245.27 -74.32,-74.33 -156.13,-130.03 -245.27,-166.98 -89.02,-36.89 -186.14,-55.39 -291.22,-55.39 -59.83,0 -116.77,5.92 -170.92,17.71zm1731.55 1013.16c-3.21,-3.43 -5.92,-6.5 -8.16,-9.19l-67.91 -81.62 941.64 0c25.63,0 48.91,-4.32 69.83,-12.96 21,-8.67 40.41,-21.9 58.17,-39.67l0 -0.19c17.93,-17.93 31.35,-37.53 40.1,-58.67 8.72,-20.94 13.11,-44.23 13.11,-69.72 0,-105.08 -18.5,-202.2 -55.39,-291.22 -36.95,-89.14 -92.65,-170.96 -166.98,-245.27 -74.32,-74.33 -156.13,-130.03 -245.27,-166.98 -89.02,-36.89 -186.14,-55.39 -291.22,-55.39 -105.32,0 -202.48,18.51 -291.49,55.44 -89.04,36.94 -170.71,92.62 -245.01,166.93l-0.19 0c-74.22,74.03 -129.83,155.75 -166.81,244.97 -36.92,89.08 -55.37,186.31 -55.37,291.52 0,105.41 18.4,202.56 55.22,291.52 37.05,89.21 92.67,170.89 166.96,244.98l0.19 0.19c74.09,74.28 155.77,129.91 245.01,166.89 88.92,36.89 186.09,55.29 291.49,55.29l346.6 0c50.11,0 92.78,-17.62 127.98,-52.82l0.19 0c17.97,-17.97 31.32,-37.47 40.01,-58.51 8.68,-20.95 13.01,-44.25 13.01,-69.88 0,-25.61 -4.33,-48.92 -13.01,-69.88 -8.71,-21.03 -22.04,-40.54 -40.01,-58.51l-0.19 0c-17.98,-17.98 -37.38,-31.28 -58.17,-39.86 -20.91,-8.64 -44.19,-12.96 -69.82,-12.96l-346.6 0c-109.19,0 -202.57,-38.79 -280.13,-116.34l0.13 -0.13c-3.35,-3.12 -5.92,-5.67 -7.91,-7.79l0 -0.2zm578.82 -540.24l0.09 -0.08 77.63 87.11 -740.17 0 83.24 -90.31 0.39 -0.19 7.78 -8.42c38.46,-38.46 81.23,-67.48 128.25,-87.01 47.07,-19.56 97.7,-29.34 151.88,-29.34 54.15,0 104.8,9.78 151.87,29.33 47.04,19.55 89.8,48.57 128.25,87.02l-0.09 0.09c3.78,3.78 7.41,7.89 10.88,11.8zm1148.2 915.78c8.64,-20.94 12.96,-44.23 12.96,-69.88l0 -1386.4c0,-25.63 -4.32,-48.91 -12.96,-69.83 -8.68,-21 -21.91,-40.41 -39.68,-58.17 -17.97,-17.82 -37.6,-31.21 -58.88,-40.05 -21.01,-8.74 -44.24,-13.16 -69.69,-13.16 -25.44,0 -48.67,4.42 -69.69,13.16 -21.24,8.83 -40.85,22.19 -58.78,39.96l0.09 0.09c-17.98,17.98 -31.28,37.38 -39.86,58.17 -8.63,20.9 -12.96,44.19 -12.96,69.83l0 1386.4c0,25.64 4.33,48.93 12.96,69.88 8.69,21.07 21.96,40.61 39.77,58.6 17.97,17.8 37.53,31.08 58.59,39.76 20.94,8.64 44.24,12.96 69.88,12.96 25.64,0 48.93,-4.32 69.88,-12.96 21.07,-8.69 40.61,-21.95 58.59,-39.77 17.82,-17.98 31.09,-37.52 39.77,-58.59zm356.72 -1526.1c-8.63,20.9 -12.96,44.19 -12.96,69.83l0 924.27c0,89.56 15.58,172.14 46.78,247.65 31.11,75.29 78.21,144.54 141.29,207.62 63.08,63.07 132.33,110.18 207.62,141.29 75.51,31.2 158.09,46.78 247.65,46.78 89.51,0 172.04,-15.56 247.56,-46.68 75.49,-31.1 144.77,-77.94 207.81,-140.52l-0.09 -0.09c17.3,-17.69 32.58,-34.57 45.77,-50.61 13.61,-16.59 26.4,-33.77 38.29,-51.61l3.7 -4.87c14.22,-16.54 24.85,-34.5 31.85,-53.81 6.99,-19.31 10.49,-40.68 10.49,-64.09 0,-25.62 -4.33,-48.92 -12.96,-69.83 -8.59,-20.79 -21.88,-40.18 -39.86,-58.17 -18.17,-18.17 -37.69,-31.58 -58.52,-40.2 -20.95,-8.67 -44.24,-13.01 -69.87,-13.01 -25.39,0 -48.6,4.41 -69.53,13.19 -20.3,8.5 -39.04,21.29 -56.14,38.3l-75.7 93.85 -3.9 4.29c-27.22,26.75 -57.7,47.04 -91.3,60.76 -33.68,13.77 -69.6,20.69 -107.61,20.69 -38.22,0 -74.11,-6.92 -107.68,-20.76 -33.38,-13.74 -63.71,-34.19 -91.04,-61.28l-0.19 -0.19c-27.08,-27.33 -47.51,-57.67 -61.28,-91.04 -13.83,-33.55 -20.76,-69.44 -20.76,-107.68l0 -512.01 165.4 0c25.63,0 48.91,-4.32 69.82,-12.96 20.79,-8.58 40.2,-21.88 58.18,-39.85l0.19 0c17.84,-17.69 31.16,-37.19 39.93,-58.38 8.73,-21.06 13.09,-44.44 13.09,-70 0,-25.48 -4.33,-48.71 -13.01,-69.64 -8.77,-21.13 -22.11,-40.6 -40.01,-58.36 -17.9,-17.89 -37.49,-31.31 -58.75,-40.14 -20.9,-8.68 -44.06,-13.07 -69.43,-13.07l-165.4 0 0 -49.87c0,-25.63 -4.32,-48.91 -12.96,-69.83 -8.68,-21 -21.91,-40.41 -39.68,-58.17 -17.97,-17.82 -37.6,-31.21 -58.88,-40.05 -21.01,-8.74 -44.24,-13.16 -69.69,-13.16 -25.44,0 -48.67,4.42 -69.69,13.16 -21.24,8.83 -40.85,22.19 -58.78,39.96l0.09 0.09c-17.98,17.98 -31.28,37.38 -39.86,58.17z"/>
    <path class="fil1" d="M4088.95 2546.23c8.63,-20.94 12.96,-44.23 12.96,-69.88l0 -1386.4c0,-25.63 -4.33,-48.92 -12.96,-69.83 -8.59,-20.79 -21.88,-40.18 -39.86,-58.17l0.09 -0.09c-17.93,-17.77 -37.54,-31.14 -58.78,-39.96 -21.01,-8.74 -44.24,-13.16 -69.69,-13.16 -25.44,0 -48.67,4.42 -69.69,13.16 -21.28,8.85 -40.91,22.23 -58.88,40.05 -17.76,17.75 -31,37.16 -39.68,58.17 -8.64,20.91 -12.96,44.19 -12.96,69.83l0 1386.4c0,25.64 4.32,48.93 12.96,69.88 8.69,21.07 21.95,40.61 39.77,58.59 17.98,17.82 37.52,31.09 58.59,39.77 20.94,8.64 44.23,12.96 69.88,12.96 25.63,0 48.93,-4.32 69.88,-12.96 21.06,-8.69 40.62,-21.96 58.59,-39.76 17.81,-17.99 31.09,-37.53 39.77,-58.6zm1382.75 -367.42c-77.55,77.55 -170.95,116.34 -280.12,116.34 -109.19,0 -202.57,-38.79 -280.13,-116.34 -77.55,-77.55 -116.34,-170.94 -116.34,-280.13 0,-54.18 9.78,-104.81 29.33,-151.87 19.53,-47.03 48.55,-89.79 87.01,-128.25 38.47,-38.47 81.24,-67.48 128.25,-87.01 47.06,-19.56 97.7,-29.34 151.88,-29.34 54.17,0 104.81,9.78 151.87,29.33 47.04,19.55 89.8,48.57 128.25,87.02 38.45,38.45 67.47,81.22 87.02,128.25 19.55,47.06 29.33,97.7 29.33,151.87 0,54.18 -9.78,104.82 -29.34,151.88 -19.53,47.02 -48.54,89.78 -87.01,128.25zm-280.12 478.74c134.73,0 256.42,-30.2 365.02,-90.57l38.67 -21.49 25.81 35.91c2.63,3.66 5.52,7.36 8.71,10.99 2.94,3.35 6.12,6.61 9.52,9.61l2.53 2.33c17.56,17.87 36.88,31.25 57.88,40.03 20.92,8.78 44.13,13.19 69.52,13.19 25.62,0 48.92,-4.33 69.83,-12.96 20.79,-8.59 40.18,-21.88 58.17,-39.86l0.09 0.09c17.76,-17.93 31.13,-37.53 39.96,-58.78 8.74,-21.01 13.16,-44.24 13.16,-69.69l0 -1155.33c0,-25.43 -4.42,-48.66 -13.16,-69.64 -8.8,-21.12 -22.16,-40.62 -39.96,-58.46 -17.82,-17.79 -37.32,-31.17 -58.45,-39.95 -20.97,-8.74 -44.2,-13.16 -69.64,-13.16 -25.62,0 -48.88,4.31 -69.71,12.89 -20.79,8.55 -40.09,21.74 -57.89,39.54 -4.65,4.65 -8.4,8.67 -11.27,12.07 -3.39,4.02 -6.27,7.76 -8.71,11.28l-25.74 37.17 -39.33 -21.98c-54.15,-30.28 -111.65,-53.02 -172.46,-68.22 -60.69,-15.17 -124.9,-22.74 -192.56,-22.74 -105.33,0 -202.48,18.51 -291.49,55.44 -89.04,36.93 -170.71,92.62 -245.01,166.93l-0.19 0c-74.22,74.03 -129.83,155.75 -166.81,244.97 -36.92,89.08 -55.37,186.31 -55.37,291.52 0,105.41 18.4,202.56 55.22,291.52 37.05,89.21 92.67,170.89 166.96,244.98l0.19 0.19c74.09,74.28 155.77,129.91 245.01,166.89 88.92,36.89 186.08,55.29 291.49,55.29zm2440.09 -1233.17l-7.57 -5.69 -4.64 -6.73c-5.08,-7.38 -11.15,-15.2 -18.17,-23.42 -6.54,-7.67 -14.8,-16.48 -24.67,-26.35 -74.32,-74.33 -156.13,-130.03 -245.27,-166.98 -89.02,-36.89 -186.14,-55.39 -291.22,-55.39 -105.33,0 -202.48,18.51 -291.49,55.44 -89.04,36.93 -170.71,92.62 -245.01,166.93l-0.19 0c-74.22,74.03 -129.83,155.75 -166.81,244.97 -36.92,89.08 -55.37,186.31 -55.37,291.52 0,105.41 18.4,202.56 55.22,291.52 37.05,89.21 92.67,170.89 166.96,244.98l0.19 0.19c74.09,74.28 155.77,129.91 245.01,166.89 88.92,36.89 186.08,55.29 291.49,55.29 105.21,0 202.43,-18.45 291.52,-55.37 89.22,-36.98 170.94,-92.59 244.97,-166.81l0.39 -0.39c9.04,-8.86 17.22,-17.55 24.54,-26.02 7.02,-8.14 13.47,-16.42 19.31,-24.72l5.46 -6.43 4.92 -4.93c17.57,-17.56 30.72,-36.89 39.35,-57.88 8.58,-20.82 12.89,-44.09 12.89,-69.72 0,-25.43 -4.42,-48.66 -13.16,-69.64 -8.72,-20.95 -22.12,-40.42 -40.05,-58.36l0 -0.19c-17.75,-17.91 -37.23,-31.25 -58.36,-40.01 -20.92,-8.68 -44.14,-13.01 -69.64,-13.01 -25.62,0 -48.87,4.32 -69.71,12.89 -20.95,8.62 -40.31,21.8 -57.98,39.45l0.09 0.09c-6.84,6.84 -12.72,13.39 -17.43,19.52 -4.8,6.23 -9.05,12.61 -12.64,19.07l-6.77 12.17 -12.12 6.92 -5.51 4.58c-77.5,77.6 -170.9,116.39 -280.07,116.39 -109.19,0 -202.57,-38.79 -280.13,-116.34 -77.55,-77.55 -116.34,-170.94 -116.34,-280.13 0,-54.18 9.78,-104.81 29.33,-151.87 19.53,-47.03 48.55,-89.79 87.01,-128.25 38.47,-38.47 81.24,-67.48 128.25,-87.01 47.06,-19.56 97.7,-29.34 151.88,-29.34 54.17,0 104.81,9.78 151.87,29.33 47.04,19.55 89.8,48.57 128.25,87.02l2.15 2.17 13.42 6.69 7.59 13.66c3.37,6.07 7.6,12.28 12.56,18.52 5.3,6.68 11.25,13.14 17.72,19.29l1.36 1.36c17.4,17.87 36.57,31.16 57.39,39.86 20.98,8.79 44.29,13.16 69.82,13.16 25.63,0 48.91,-4.32 69.83,-12.96 21,-8.67 40.41,-21.9 58.17,-39.67l0 -0.19c17.93,-17.93 31.35,-37.53 40.1,-58.67 8.72,-20.94 13.11,-44.23 13.11,-69.72 0,-25.8 -4.32,-49.23 -12.89,-70.2 -8.14,-19.92 -20.4,-38.55 -36.72,-55.82l-2.17 -1.67zm1360.86 -232.54l-615.87 770.18 0 -872.07c0,-25.63 -4.32,-48.91 -12.96,-69.83 -8.68,-21 -21.91,-40.41 -39.68,-58.17 -17.97,-17.82 -37.6,-31.21 -58.88,-40.05 -21.01,-8.74 -44.24,-13.16 -69.69,-13.16 -25.44,0 -48.67,4.42 -69.69,13.16 -21.24,8.83 -40.85,22.19 -58.78,39.96l0.09 0.09c-17.98,17.98 -31.28,37.38 -39.86,58.17 -8.63,20.9 -12.96,44.19 -12.96,69.83l0 1386.4c0,25.64 4.33,48.93 12.96,69.88 8.69,21.07 21.96,40.61 39.77,58.6 17.97,17.8 37.53,31.08 58.59,39.76 20.94,8.64 44.24,12.96 69.88,12.96 25.43,0 48.73,-4.41 69.82,-13.18 21.13,-8.79 40.83,-22.3 58.96,-40.43l0.19 0c5.76,-5.75 10.78,-11.37 15.08,-16.81 3.84,-4.86 7.94,-10.83 12.22,-17.8l3.51 -4.68 302.35 -382.02 336.73 423.68c17.03,16.89 35.69,29.59 55.89,38.06 20.93,8.77 44.14,13.18 69.53,13.18 50.11,0 92.78,-17.62 127.98,-52.82l0.19 0c17.97,-17.97 31.32,-37.47 40.01,-58.51 8.68,-20.95 13.01,-44.25 13.01,-69.88 0,-25.8 -4.31,-49.23 -12.89,-70.2 -8.63,-21.13 -21.9,-40.81 -39.73,-58.96l-3.11 -3.31 -364.45 -445.06 364.45 -446.31 3.31 -3.89c17.78,-17.78 30.99,-37.1 39.54,-57.89 8.58,-20.82 12.89,-44.08 12.89,-69.71 0,-25.48 -4.33,-48.71 -13.01,-69.64 -8.76,-21.13 -22.1,-40.59 -40.01,-58.36l-0.19 0c-17.98,-17.98 -37.52,-31.41 -58.56,-40.14 -20.9,-8.68 -44.05,-13.07 -69.43,-13.07 -25.62,0 -48.89,4.31 -69.72,12.89 -20.63,8.49 -39.8,21.54 -57.49,39.14z"/>
   </g>
   <path class="fil1" d="M240.6 1336.64c-407.04,392.84 -275.7,1057.19 229.09,1267.42 116.46,48.49 203.02,58.59 341.63,58.36 252.73,-0.43 545.19,13.83 792.79,-1.58 -79.95,-95.64 -138.74,-112 -233.2,-282.27 -18.73,-33.78 -40.68,-87.53 -60.55,-116.4 -178.28,-16.87 -450.3,22.09 -610.99,-8.12 -363.4,-68.33 -403.71,-573.74 -56.09,-699.52 139.44,-50.45 439.91,5.67 598.09,-21.28l1.23 -400.9c-357.14,-35.63 -674.87,100.06 -813.52,-226.48 -79.37,-186.96 20.96,-417.96 232.42,-483.4 73.37,-22.7 172.63,-15.66 254.47,-15.66 198.82,0 294.77,-17.75 423.93,95.13 113.19,98.92 120.42,208.38 120.42,400.06 0,277.9 -10.87,791.05 1.03,1038.43 13.18,274.09 175.72,508.39 405.99,634.09 136.38,74.44 251,87.51 425.04,87.49 167.04,-0.01 339.51,13.51 488.59,-31.72 496.93,-150.74 730.41,-763.62 363.09,-1227.62 -18.52,-23.39 -50.71,-46.33 -63.93,-76.06 235.15,-188.69 314.94,-593.42 167.63,-888.87 -150.48,-301.81 -398.76,-434.2 -778.29,-434.19 -265.99,0.01 -545.8,-8.41 -810.06,0.66 2.51,3.55 116.09,102.32 173.84,173.98 41.75,51.81 115.21,155.17 134.42,227.82 122.9,1.65 557.59,-6.36 634.35,3.15 162.38,20.13 296.14,151.87 315.87,317.31 22.96,192.39 -105.21,339.16 -244.3,387.8 -116.83,40.85 -473.72,4.87 -626.51,18.01l-4.27 402.81c169.17,7.04 347.19,0.64 515.27,0.91 421.58,0.68 482.92,575.31 120.86,702.68 -77.12,27.13 -154.88,21.46 -241.67,21.46 -182.55,0 -317.67,20.76 -439.1,-82.07 -118.71,-100.52 -134.63,-183.9 -134.63,-390.69 0.01,-283.17 10.85,-792.41 -0.87,-1046.52 -14.75,-319.59 -199.15,-532.05 -399.26,-643.71 -130.34,-72.72 -257.03,-93.67 -426.68,-93.61 -167.12,0.06 -335.51,-12.61 -488.27,31.46 -529.1,152.64 -722.06,807 -370.14,1226.35 15.21,18.12 53.08,58.12 62.32,75.29z"/>
  </g>
 </g>
</svg>
